<svg width="15" height="15" viewBox="0 0 15 15" fill="none" xmlns="http://www.w3.org/2000/svg">
<path opacity="0.3" d="M7.49783 13.4961H2.24935C2.05049 13.4961 1.85978 13.4171 1.71917 13.2765C1.57856 13.1359 1.49957 12.9452 1.49957 12.7463V2.24935C1.49957 2.05049 1.57856 1.85978 1.71917 1.71917C1.85978 1.57856 2.05049 1.49957 2.24935 1.49957H5.99826V3.74891C5.99826 4.34548 6.23524 4.91761 6.65708 5.33944C7.07891 5.76128 7.65104 5.99826 8.24761 5.99826H10.497V6.74804C10.497 6.9469 10.576 7.13761 10.7166 7.27822C10.8572 7.41883 11.0479 7.49783 11.2467 7.49783C11.4456 7.49783 11.6363 7.41883 11.7769 7.27822C11.9175 7.13761 11.9965 6.9469 11.9965 6.74804V5.24848C11.9965 5.24848 11.9965 5.24848 11.9965 5.20349C11.9887 5.13461 11.9736 5.06675 11.9515 5.00105V4.93357C11.9155 4.85648 11.8674 4.78561 11.8091 4.72363L7.31038 0.224935C7.2484 0.166614 7.17753 0.118526 7.10044 0.082476C7.07806 0.0792971 7.05534 0.0792971 7.03296 0.082476C6.95679 0.0387947 6.87267 0.010755 6.78553 0H2.24935C1.65278 0 1.08065 0.236984 0.658819 0.658819C0.236984 1.08065 0 1.65278 0 2.24935V12.7463C0 13.3429 0.236984 13.915 0.658819 14.3368C1.08065 14.7587 1.65278 14.9957 2.24935 14.9957H7.49783C7.69668 14.9957 7.88739 14.9167 8.028 14.776C8.16861 14.6354 8.24761 14.4447 8.24761 14.2459C8.24761 14.047 8.16861 13.8563 8.028 13.7157C7.88739 13.5751 7.69668 13.4961 7.49783 13.4961ZM7.49783 2.55676L9.43976 4.4987H8.24761C8.04875 4.4987 7.85804 4.4197 7.71743 4.27909C7.57682 4.13848 7.49783 3.94777 7.49783 3.74891V2.55676ZM3.74891 4.4987C3.55006 4.4987 3.35935 4.57769 3.21874 4.7183C3.07813 4.85891 2.99913 5.04962 2.99913 5.24848C2.99913 5.44733 3.07813 5.63804 3.21874 5.77865C3.35935 5.91927 3.55006 5.99826 3.74891 5.99826H4.4987C4.69755 5.99826 4.88826 5.91927 5.02887 5.77865C5.16948 5.63804 5.24848 5.44733 5.24848 5.24848C5.24848 5.04962 5.16948 4.85891 5.02887 4.7183C4.88826 4.57769 4.69755 4.4987 4.4987 4.4987H3.74891ZM14.7782 13.7135L13.901 12.8438C14.1814 12.3544 14.2936 11.7865 14.2205 11.2272C14.1473 10.6679 13.8929 10.1481 13.4961 9.74717C13.131 9.36904 12.6604 9.10963 12.1458 9.00274C11.6311 8.89586 11.0962 8.94646 10.6107 9.14794C10.1252 9.34942 9.7116 9.69245 9.42384 10.1323C9.13609 10.5722 8.98749 11.0886 8.99739 11.6141C8.99481 12.0664 9.11051 12.5115 9.33301 12.9052C9.55551 13.299 9.87708 13.6277 10.2658 13.8588C10.6546 14.09 11.097 14.2154 11.5492 14.2228C12.0014 14.2302 12.4477 14.1193 12.8438 13.901L13.7135 14.7782C13.7832 14.8485 13.8662 14.9043 13.9575 14.9423C14.0489 14.9804 14.1469 15 14.2459 15C14.3448 15 14.4429 14.9804 14.5342 14.9423C14.6256 14.9043 14.7085 14.8485 14.7782 14.7782C14.8485 14.7085 14.9043 14.6256 14.9423 14.5342C14.9804 14.4429 15 14.3448 15 14.2459C15 14.1469 14.9804 14.0489 14.9423 13.9575C14.9043 13.8662 14.8485 13.7832 14.7782 13.7135ZM12.4014 12.4014C12.1873 12.6028 11.9044 12.7149 11.6104 12.7149C11.3164 12.7149 11.0335 12.6028 10.8194 12.4014C10.613 12.1913 10.4972 11.9086 10.497 11.6141C10.4954 11.4662 10.5238 11.3196 10.5805 11.183C10.6372 11.0464 10.721 10.9227 10.8269 10.8194C11.0268 10.6205 11.2948 10.5053 11.5766 10.497C11.7282 10.4876 11.8801 10.5098 12.0227 10.5619C12.1654 10.6141 12.2957 10.6951 12.4055 10.8C12.5154 10.9049 12.6023 11.0314 12.661 11.1715C12.7196 11.3116 12.7487 11.4623 12.7463 11.6141C12.7401 11.9119 12.6161 12.195 12.4014 12.4014ZM8.24761 7.49783H3.74891C3.55006 7.49783 3.35935 7.57682 3.21874 7.71743C3.07813 7.85804 2.99913 8.04875 2.99913 8.24761C2.99913 8.44646 3.07813 8.63717 3.21874 8.77779C3.35935 8.9184 3.55006 8.99739 3.74891 8.99739H8.24761C8.44646 8.99739 8.63717 8.9184 8.77779 8.77779C8.9184 8.63717 8.99739 8.44646 8.99739 8.24761C8.99739 8.04875 8.9184 7.85804 8.77779 7.71743C8.63717 7.57682 8.44646 7.49783 8.24761 7.49783ZM6.74804 11.9965C6.9469 11.9965 7.13761 11.9175 7.27822 11.7769C7.41883 11.6363 7.49783 11.4456 7.49783 11.2467C7.49783 11.0479 7.41883 10.8572 7.27822 10.7166C7.13761 10.576 6.9469 10.497 6.74804 10.497H3.74891C3.55006 10.497 3.35935 10.576 3.21874 10.7166C3.07813 10.8572 2.99913 11.0479 2.99913 11.2467C2.99913 11.4456 3.07813 11.6363 3.21874 11.7769C3.35935 11.9175 3.55006 11.9965 3.74891 11.9965H6.74804Z" fill="#777777"/>
</svg>
