<svg width="17" height="15" viewBox="0 0 17 15" fill="none" xmlns="http://www.w3.org/2000/svg">
<path d="M10.4024 7.89474H9.61291V7.10527C9.61291 6.89589 9.52973 6.69509 9.38168 6.54703C9.23362 6.39898 9.03282 6.3158 8.82344 6.3158C8.61406 6.3158 8.41325 6.39898 8.2652 6.54703C8.11714 6.69509 8.03397 6.89589 8.03397 7.10527V7.89474H7.24449C7.03511 7.89474 6.83431 7.97792 6.68625 8.12598C6.5382 8.27403 6.45502 8.47484 6.45502 8.68422C6.45502 8.8936 6.5382 9.0944 6.68625 9.24246C6.83431 9.39051 7.03511 9.47369 7.24449 9.47369H8.03397V10.2632C8.03397 10.4725 8.11714 10.6734 8.2652 10.8214C8.41325 10.9695 8.61406 11.0526 8.82344 11.0526C9.03282 11.0526 9.23362 10.9695 9.38168 10.8214C9.52973 10.6734 9.61291 10.4725 9.61291 10.2632V9.47369H10.4024C10.6118 9.47369 10.8126 9.39051 10.9606 9.24246C11.1087 9.0944 11.1919 8.8936 11.1919 8.68422C11.1919 8.47484 11.1087 8.27403 10.9606 8.12598C10.8126 7.97792 10.6118 7.89474 10.4024 7.89474ZM14.3497 2.36844H9.39186L9.13923 1.57896C8.97545 1.11572 8.67166 0.714888 8.26994 0.431986C7.86822 0.149085 7.38846 -0.0018765 6.89712 1.76081e-05H3.29713C2.66899 1.76081e-05 2.06657 0.249547 1.6224 0.693711C1.17824 1.13788 0.928711 1.74029 0.928711 2.36844V12.6316C0.928711 13.2597 1.17824 13.8621 1.6224 14.3063C2.06657 14.7505 2.66899 15 3.29713 15H14.3497C14.9779 15 15.5803 14.7505 16.0245 14.3063C16.4686 13.8621 16.7182 13.2597 16.7182 12.6316V4.73685C16.7182 4.10871 16.4686 3.50629 16.0245 3.06213C15.5803 2.61797 14.9779 2.36844 14.3497 2.36844ZM15.1392 12.6316C15.1392 12.841 15.056 13.0418 14.908 13.1898C14.7599 13.3379 14.5591 13.4211 14.3497 13.4211H3.29713C3.08775 13.4211 2.88694 13.3379 2.73889 13.1898C2.59083 13.0418 2.50766 12.841 2.50766 12.6316V2.36844C2.50766 2.15905 2.59083 1.95825 2.73889 1.81019C2.88694 1.66214 3.08775 1.57896 3.29713 1.57896H6.89712C7.06263 1.57854 7.22409 1.63014 7.35867 1.72647C7.49326 1.8228 7.59416 1.959 7.64712 2.1158L8.07344 3.41054C8.1264 3.56735 8.22731 3.70354 8.36189 3.79987C8.49647 3.89621 8.65793 3.94781 8.82344 3.94738H14.3497C14.5591 3.94738 14.7599 4.03056 14.908 4.17861C15.056 4.32667 15.1392 4.52747 15.1392 4.73685V12.6316Z" fill="#777777"/>
</svg>
