<svg width="16" height="16" viewBox="0 0 16 16" fill="none" xmlns="http://www.w3.org/2000/svg">
<path d="M8.00035 7.74417e-09C6.77322 -5.39817e-05 5.56252 0.282192 4.46192 0.824904C3.36132 1.36762 2.40032 2.15624 1.65327 3.12978C0.906221 4.10331 0.393143 5.23566 0.153731 6.43921C-0.0856808 7.64276 -0.0450089 8.88526 0.272601 10.0706C0.59021 11.2559 1.17624 12.3523 1.98536 13.2749C2.79448 14.1975 3.805 14.9215 4.93873 15.3911C6.07247 15.8607 7.29903 16.0632 8.52354 15.9829C9.74804 15.9025 10.9377 15.5416 12.0004 14.928C12.096 14.878 12.1805 14.8092 12.2488 14.7256C12.3171 14.6421 12.3678 14.5457 12.3979 14.442C12.4279 14.3384 12.4367 14.2298 12.4237 14.1227C12.4107 14.0156 12.3761 13.9122 12.3221 13.8188C12.2682 13.7254 12.1958 13.6438 12.1095 13.5791C12.0232 13.5144 11.9247 13.4678 11.8199 13.4421C11.7151 13.4164 11.6062 13.4122 11.4997 13.4297C11.3932 13.4472 11.2914 13.4861 11.2004 13.544C9.9803 14.2484 8.56191 14.5306 7.16516 14.3467C5.76841 14.1629 4.47135 13.5233 3.47512 12.5272C2.4789 11.5311 1.83918 10.2341 1.65518 8.83734C1.47117 7.44061 1.75317 6.02219 2.45743 4.80206C3.16169 3.58193 4.24886 2.62826 5.55035 2.08895C6.85183 1.54965 8.2949 1.45484 9.65575 1.81923C11.0166 2.18363 12.2192 2.98686 13.077 4.10437C13.9349 5.22187 14.4 6.5912 14.4004 8V8.6C14.4004 8.9713 14.2529 9.3274 13.9903 9.58995C13.7277 9.8525 13.3717 10 13.0004 10C12.629 10 12.273 9.8525 12.0104 9.58995C11.7479 9.3274 11.6004 8.9713 11.6004 8.6V5.2C11.6004 4.98783 11.5161 4.78434 11.366 4.63431C11.216 4.48429 11.0125 4.4 10.8004 4.4C10.6143 4.39586 10.4327 4.4567 10.2866 4.57206C10.1406 4.68741 10.0394 4.85006 10.0004 5.032C9.41228 4.62526 8.71536 4.40504 8.00035 4.4C7.39808 4.3928 6.80364 4.53682 6.27145 4.81888C5.73926 5.10093 5.28635 5.51201 4.9542 6.01445C4.62204 6.5169 4.42126 7.09465 4.37024 7.6948C4.31922 8.29494 4.41959 8.8983 4.66217 9.4496C4.90474 10.0009 5.28176 10.4825 5.7587 10.8504C6.23563 11.2182 6.79724 11.4605 7.39208 11.5551C7.98692 11.6497 8.59598 11.5935 9.16348 11.3917C9.73097 11.1899 10.2388 10.8489 10.6404 10.4C11.0205 10.8923 11.5445 11.2538 12.1397 11.4344C12.7348 11.615 13.3714 11.6057 13.961 11.4077C14.5506 11.2097 15.0638 10.8329 15.4293 10.3297C15.7948 9.82649 15.9944 9.2219 16.0004 8.6V8C16.0004 6.94942 15.7934 5.90914 15.3914 4.93853C14.9894 3.96793 14.4001 3.08601 13.6572 2.34315C12.9143 1.60028 12.0324 1.011 11.0618 0.608964C10.0912 0.206926 9.05093 7.74417e-09 8.00035 7.74417e-09ZM8.00035 10C7.60479 10 7.21811 9.8827 6.88921 9.66294C6.56031 9.44318 6.30397 9.13082 6.15259 8.76537C6.00122 8.39991 5.96161 7.99778 6.03878 7.60982C6.11595 7.22186 6.30643 6.86549 6.58614 6.58579C6.86584 6.30608 7.22221 6.1156 7.61017 6.03843C7.99813 5.96126 8.40027 6.00086 8.76572 6.15224C9.13117 6.30362 9.44353 6.55996 9.66329 6.88886C9.88305 7.21776 10.0004 7.60444 10.0004 8C10.0004 8.53043 9.78964 9.03914 9.41457 9.41421C9.03949 9.78929 8.53078 10 8.00035 10Z" fill="#777777"/>
</svg>
