<svg width="17" height="16" viewBox="0 0 17 16" fill="none" xmlns="http://www.w3.org/2000/svg">
<path d="M15.7648 3.62589L14.6292 2.49832L15.7648 1.37075C15.9154 1.22017 16 1.01593 16 0.802968C16 0.590008 15.9154 0.38577 15.7648 0.235184C15.6142 0.0845981 15.41 0 15.197 0C14.9841 0 14.7798 0.0845981 14.6292 0.235184L6.20045 8.66398C5.3736 8.11845 4.37368 7.89928 3.39446 8.04892C2.41523 8.19857 1.52641 8.70638 0.900218 9.47395C0.27403 10.2415 -0.0449407 11.2142 0.00511094 12.2035C0.0551626 13.1929 0.470673 14.1284 1.17113 14.8289C1.87159 15.5293 2.80712 15.9448 3.79645 15.9949C4.78578 16.0449 5.75847 15.726 6.52605 15.0998C7.29362 14.4736 7.80143 13.5848 7.95108 12.6055C8.10072 11.6263 7.88155 10.6264 7.33602 9.79955L11.2385 5.88903L12.3661 7.0246C12.4408 7.09872 12.5295 7.15736 12.6269 7.19715C12.7243 7.23695 12.8286 7.25712 12.9339 7.25651C13.0391 7.25712 13.1435 7.23695 13.2409 7.19715C13.3383 7.15736 13.427 7.09872 13.5017 7.0246C13.5766 6.95026 13.6361 6.86181 13.6767 6.76436C13.7173 6.66691 13.7382 6.56239 13.7382 6.45682C13.7382 6.35125 13.7173 6.24672 13.6767 6.14927C13.6361 6.05182 13.5766 5.96338 13.5017 5.88903L12.3661 4.80145L13.5017 3.66588L14.6292 4.80145C14.704 4.87556 14.7926 4.9342 14.89 4.974C14.9875 5.0138 15.0918 5.03397 15.197 5.03336C15.3023 5.03397 15.4066 5.0138 15.504 4.974C15.6015 4.9342 15.6901 4.87556 15.7648 4.80145C15.846 4.72656 15.9108 4.63567 15.9551 4.53451C15.9994 4.43335 16.0223 4.32411 16.0223 4.21367C16.0223 4.10323 15.9994 3.99399 15.9551 3.89283C15.9108 3.79167 15.846 3.70078 15.7648 3.62589ZM4.00129 14.3978C3.52679 14.3978 3.06296 14.2571 2.66843 13.9935C2.2739 13.7299 1.9664 13.3552 1.78482 12.9168C1.60324 12.4784 1.55573 11.996 1.6483 11.5307C1.74087 11.0653 1.96936 10.6378 2.30488 10.3023C2.6404 9.96678 3.06787 9.73829 3.53325 9.64572C3.99863 9.55315 4.481 9.60066 4.91938 9.78224C5.35776 9.96382 5.73244 10.2713 5.99606 10.6658C6.25967 11.0604 6.40038 11.5242 6.40038 11.9987C6.40038 12.635 6.14762 13.2452 5.6977 13.6951C5.24778 14.145 4.63757 14.3978 4.00129 14.3978Z" fill="#777777"/>
</svg>
