<svg width="13" height="15" viewBox="0 0 13 15" fill="none" xmlns="http://www.w3.org/2000/svg">
<path d="M12.0516 2.94844L9.23906 0.135945C9.15061 0.0482008 9.03084 -0.000695645 8.90625 7.47947e-06H1.40625C0.629589 7.47947e-06 0 0.629597 0 1.40626V13.5938C0 14.3704 0.629589 15 1.40625 15H10.7812C11.5579 15 12.1875 14.3704 12.1875 13.5938V3.28126C12.1882 3.15666 12.1393 3.03692 12.0516 2.94844ZM11.25 13.5938C11.25 13.8526 11.0401 14.0625 10.7812 14.0625H1.40625C1.14735 14.0625 0.9375 13.8526 0.9375 13.5938V1.40626C0.9375 1.14736 1.14735 0.937507 1.40625 0.937507H8.4375V2.81251C8.4375 3.33027 8.85723 3.75001 9.375 3.75001H11.25V13.5938Z" fill="#777777"/>
</svg>
