<?xml version="1.0" encoding="iso-8859-1"?>
<!-- Generator: Adobe Illustrator 19.0.0, SVG Export Plug-In . SVG Version: 6.00 Build 0)  -->
<svg version="1.1" id="Capa_1" xmlns="http://www.w3.org/2000/svg" xmlns:xlink="http://www.w3.org/1999/xlink" x="0px" y="0px"
	 viewBox="0 0 400.806 400.806" style="enable-background:new 0 0 400.806 400.806;" xml:space="preserve">
<g>
	<g>
		<path d="M349.567,0H51.239C27.675,0,8.572,19.103,8.572,42.667v342.626c0,5.891,4.776,10.667,10.667,10.667
			c2.106,0,4.165-0.623,5.917-1.791l40.141-26.76c4.231-2.82,9.864-2.263,13.459,1.333l28.941,28.941
			c4.166,4.166,10.919,4.166,15.085,0l27.582-27.582c4.166-4.166,10.919-4.166,15.085,0l27.582,27.582
			c4.166,4.166,10.919,4.166,15.085,0l27.582-27.582c4.166-4.166,10.919-4.166,15.085,0l27.582,27.582
			c4.166,4.166,10.919,4.166,15.085,0l28.925-28.925c3.602-3.602,9.249-4.154,13.481-1.318l39.774,26.657
			c4.894,3.28,11.519,1.971,14.799-2.922c1.177-1.757,1.806-3.824,1.806-5.939V42.667C392.234,19.103,373.131,0,349.567,0z
			 M349.567,326.711c-19.436-7.711-42.08-3.409-57.363,11.875l-6.298,6.298l-4.954-4.954c-20.828-20.828-54.597-20.828-75.425,0
			l-4.954,4.954l-4.954-4.954c-20.828-20.828-54.597-20.828-75.425,0l-4.954,4.954l-6.313-6.313
			c-15.365-15.365-38.175-19.635-57.687-11.745V42.667h298.328V326.711z"/>
	</g>
</g>
<g>
	<g>
		<rect x="93.905" y="85.224" width="213.634" height="42.667"/>
	</g>
</g>
<g>
	<g>
		<rect x="94.206" y="170.393" width="85.333" height="42.667"/>
	</g>
</g>
<g>
	<g>
		<rect x="222.206" y="170.393" width="42.667" height="42.667"/>
	</g>
</g>
<g>
</g>
<g>
</g>
<g>
</g>
<g>
</g>
<g>
</g>
<g>
</g>
<g>
</g>
<g>
</g>
<g>
</g>
<g>
</g>
<g>
</g>
<g>
</g>
<g>
</g>
<g>
</g>
<g>
</g>
</svg>
