<svg width="19" height="20" viewBox="0 0 19 20" fill="none" xmlns="http://www.w3.org/2000/svg">
<path d="M8 18H3C2.73478 18 2.48043 17.8946 2.29289 17.7071C2.10536 17.5196 2 17.2652 2 17V3C2 2.73478 2.10536 2.48043 2.29289 2.29289C2.48043 2.10536 2.73478 2 3 2H8V5C8 5.79565 8.31607 6.55871 8.87868 7.12132C9.44129 7.68393 10.2044 8 11 8H14C14 8.26522 14.1054 8.51957 14.2929 8.70711C14.4804 8.89464 14.7348 9 15 9C15.2652 9 15.5196 8.89464 15.7071 8.70711C15.8946 8.51957 16 8.26522 16 8V7C16 7 16 7 16 6.94C15.9896 6.84813 15.9695 6.75763 15.94 6.67V6.58C15.8919 6.47718 15.8278 6.38267 15.75 6.3L9.75 0.3C9.66734 0.222216 9.57282 0.158081 9.47 0.11C9.44015 0.10576 9.40985 0.10576 9.38 0.11L9.06 0H3C2.20435 0 1.44129 0.316071 0.87868 0.87868C0.316071 1.44129 0 2.20435 0 3V17C0 17.7956 0.316071 18.5587 0.87868 19.1213C1.44129 19.6839 2.20435 20 3 20H8C8.26522 20 8.51957 19.8946 8.70711 19.7071C8.89464 19.5196 9 19.2652 9 19C9 18.7348 8.89464 18.4804 8.70711 18.2929C8.51957 18.1054 8.26522 18 8 18ZM10 3.41L12.59 6H11C10.7348 6 10.4804 5.89464 10.2929 5.70711C10.1054 5.51957 10 5.26522 10 5V3.41ZM5 6C4.73478 6 4.48043 6.10536 4.29289 6.29289C4.10536 6.48043 4 6.73478 4 7C4 7.26522 4.10536 7.51957 4.29289 7.70711C4.48043 7.89464 4.73478 8 5 8H6C6.26522 8 6.51957 7.89464 6.70711 7.70711C6.89464 7.51957 7 7.26522 7 7C7 6.73478 6.89464 6.48043 6.70711 6.29289C6.51957 6.10536 6.26522 6 6 6H5ZM18.63 11.86C18.5138 11.766 18.3781 11.6993 18.2327 11.6647C18.0873 11.6301 17.9361 11.6285 17.79 11.66C17.4108 11.7399 17.0191 11.7394 16.6401 11.6584C16.2612 11.5774 15.9034 11.4179 15.59 11.19C15.4187 11.0649 15.2121 10.9974 15 10.9974C14.7879 10.9974 14.5813 11.0649 14.41 11.19C14.0963 11.4173 13.7385 11.5765 13.3597 11.6575C12.9808 11.7384 12.5892 11.7393 12.21 11.66C12.0623 11.6282 11.9094 11.6304 11.7626 11.6662C11.6159 11.702 11.4791 11.7706 11.3627 11.8668C11.2463 11.9631 11.1531 12.0844 11.0903 12.2218C11.0275 12.3592 10.9966 12.509 11 12.66V15C10.9984 15.7158 11.164 16.4221 11.4834 17.0627C11.8028 17.7033 12.2673 18.2605 12.84 18.69L14.4 19.8C14.5731 19.9298 14.7836 20 15 20C15.2164 20 15.4269 19.9298 15.6 19.8L17.16 18.64C17.7259 18.2156 18.1864 17.6664 18.5055 17.0351C18.8246 16.4038 18.9938 15.7074 19 15V12.63C18.999 12.4823 18.9653 12.3366 18.9014 12.2035C18.8374 12.0704 18.7447 11.9531 18.63 11.86ZM17 15C17.0047 15.4017 16.917 15.7991 16.7436 16.1615C16.5702 16.5239 16.3158 16.8416 16 17.09L15 17.81L14 17.09C13.6842 16.8416 13.4298 16.5239 13.2564 16.1615C13.083 15.7991 12.9953 15.4017 13 15V13.72C13.6994 13.6886 14.3829 13.5006 15 13.17C15.6171 13.5006 16.3006 13.6886 17 13.72V15ZM8 14.05H5C4.73478 14.05 4.48043 14.1554 4.29289 14.3429C4.10536 14.5304 4 14.7848 4 15.05C4 15.3152 4.10536 15.5696 4.29289 15.7571C4.48043 15.9446 4.73478 16.05 5 16.05H8C8.26522 16.05 8.51957 15.9446 8.70711 15.7571C8.89464 15.5696 9 15.3152 9 15.05C9 14.7848 8.89464 14.5304 8.70711 14.3429C8.51957 14.1554 8.26522 14.05 8 14.05ZM9 10.05H5C4.73478 10.05 4.48043 10.1554 4.29289 10.3429C4.10536 10.5304 4 10.7848 4 11.05C4 11.3152 4.10536 11.5696 4.29289 11.7571C4.48043 11.9446 4.73478 12.05 5 12.05H9C9.26522 12.05 9.51957 11.9446 9.70711 11.7571C9.89464 11.5696 10 11.3152 10 11.05C10 10.7848 9.89464 10.5304 9.70711 10.3429C9.51957 10.1554 9.26522 10.05 9 10.05Z" fill="white"/>
</svg>
