<svg width="20" height="14" viewBox="0 0 20 14" fill="none" xmlns="http://www.w3.org/2000/svg">
<path d="M0.0937962 9.34817C0.153307 9.50166 0.242543 9.64188 0.356379 9.7608L4.10755 13.512C4.22413 13.6286 4.36254 13.721 4.51486 13.7841C4.66719 13.8472 4.83045 13.8797 4.99532 13.8797C5.3283 13.8797 5.64765 13.7474 5.8831 13.512C5.99969 13.3954 6.09217 13.257 6.15526 13.1047C6.21836 12.9523 6.25083 12.7891 6.25083 12.6242C6.25083 12.2912 6.11855 11.9719 5.8831 11.7364L4.25759 10.1234L16.2488 10.1234C17.2437 10.1234 18.1978 9.7282 18.9013 9.02472C19.6048 8.32124 20 7.36712 20 6.37225L20 1.37069C20 1.03906 19.8683 0.721021 19.6338 0.486527C19.3993 0.252033 19.0812 0.120297 18.7496 0.120297C18.418 0.120297 18.0999 0.252033 17.8655 0.486527C17.631 0.72102 17.4992 1.03906 17.4992 1.37069L17.4992 6.37225C17.4992 6.70387 17.3675 7.02191 17.133 7.2564C16.8985 7.4909 16.5805 7.62263 16.2488 7.62263L4.25759 7.62263L5.8831 6.00963C6.0003 5.89339 6.09332 5.7551 6.1568 5.60272C6.22028 5.45035 6.25296 5.28692 6.25296 5.12185C6.25296 4.95679 6.22028 4.79335 6.1568 4.64098C6.09332 4.48861 6.0003 4.35032 5.8831 4.23408C5.76686 4.11688 5.62857 4.02386 5.4762 3.96038C5.32382 3.8969 5.16039 3.86421 4.99532 3.86421C4.83026 3.86421 4.66683 3.8969 4.51445 3.96038C4.36208 4.02386 4.22379 4.11688 4.10755 4.23408L0.356379 7.98525C0.242543 8.10416 0.153307 8.24439 0.0937963 8.39787C-0.0312648 8.7023 -0.0312648 9.04375 0.0937962 9.34817Z" fill="#FA0069"/>
</svg>
